<mxfile host="65bd71144e">
    <diagram id="4nTv_bc3iGxrTNaZJK-O" name="push_execute">
        <mxGraphModel dx="746" dy="1663" grid="1" gridSize="10" guides="1" tooltips="1" connect="1" arrows="1" fold="1" page="1" pageScale="1" pageWidth="850" pageHeight="1100" math="0" shadow="0">
            <root>
                <mxCell id="0"/>
                <mxCell id="1" parent="0"/>
                <mxCell id="2" value="FilterTable" style="shape=umlLifeline;perimeter=lifelinePerimeter;whiteSpace=wrap;html=1;container=1;collapsible=0;recursiveResize=0;outlineConnect=0;" vertex="1" parent="1">
                    <mxGeometry x="10" y="90" width="100" height="300" as="geometry"/>
                </mxCell>
                <mxCell id="9" value="" style="html=1;points=[];perimeter=orthogonalPerimeter;" vertex="1" parent="2">
                    <mxGeometry x="159" y="70" width="10" height="80" as="geometry"/>
                </mxCell>
                <mxCell id="3" value="FilterCtrl" style="shape=umlLifeline;perimeter=lifelinePerimeter;whiteSpace=wrap;html=1;container=1;collapsible=0;recursiveResize=0;outlineConnect=0;lifelineDashed=0;" vertex="1" parent="1">
                    <mxGeometry x="124" y="90" width="100" height="300" as="geometry"/>
                </mxCell>
                <mxCell id="4" value="押下されたボタンが含まれるインデックスを取得&lt;br&gt;モーダルを閉じる&lt;br&gt;リストのチェックがついている値を取得&lt;br&gt;行の表示を切り替える&lt;br&gt;重複を削除した表示されている行配列を取得&lt;br&gt;当該モーダル以外のモーダルないのリストを再生成&lt;br&gt;（表示されている行と同値ならリスト生成対象）" style="text;strokeColor=none;align=left;fillColor=none;html=1;verticalAlign=middle;whiteSpace=wrap;rounded=0;movable=1;resizable=1;rotatable=1;deletable=1;editable=1;connectable=1;" vertex="1" parent="1">
                    <mxGeometry x="30" y="-30" width="310" height="30" as="geometry"/>
                </mxCell>
                <mxCell id="7" value="execute(e)" style="html=1;verticalAlign=bottom;endArrow=block;exitX=0.22;exitY=-0.01;exitDx=0;exitDy=0;exitPerimeter=0;" edge="1" parent="1" source="9">
                    <mxGeometry relative="1" as="geometry">
                        <mxPoint x="294" y="160" as="sourcePoint"/>
                        <mxPoint x="287.5" y="159.20000000000005" as="targetPoint"/>
                    </mxGeometry>
                </mxCell>
                <mxCell id="13" value="FilterBtn" style="shape=umlLifeline;perimeter=lifelinePerimeter;whiteSpace=wrap;html=1;container=1;collapsible=0;recursiveResize=0;outlineConnect=0;lifelineDashed=0;" vertex="1" parent="1">
                    <mxGeometry x="240" y="90" width="100" height="300" as="geometry"/>
                </mxCell>
                <mxCell id="14" value="" style="html=1;points=[];perimeter=orthogonalPerimeter;" vertex="1" parent="13">
                    <mxGeometry x="159" y="70" width="10" height="80" as="geometry"/>
                </mxCell>
            </root>
        </mxGraphModel>
    </diagram>
</mxfile>